<svg width="764" height="225" viewBox="0 0 764 225" fill="none" xmlns="http://www.w3.org/2000/svg">
<path d="M97.2641 89.54V159.5H85.2521V148.94C82.7001 152.548 79.3121 155.364 75.0881 157.388C70.9521 159.324 66.4201 160.292 61.4921 160.292C52.1641 160.292 44.8161 157.74 39.4481 152.636C34.0801 147.444 31.3961 139.832 31.3961 129.8V89.54H44.0681V128.348C44.0681 135.124 45.6961 140.272 48.9521 143.792C52.2081 147.224 56.8721 148.94 62.9441 148.94C69.6321 148.94 74.9121 146.916 78.7841 142.868C82.6561 138.82 84.5921 133.1 84.5921 125.708V89.54H97.2641ZM161.384 88.88C170.272 88.88 177.312 91.476 182.504 96.668C187.784 101.772 190.424 109.296 190.424 119.24V159.5H177.752V120.692C177.752 113.916 176.124 108.812 172.868 105.38C169.612 101.948 164.948 100.232 158.876 100.232C152.012 100.232 146.6 102.256 142.64 106.304C138.68 110.264 136.7 115.984 136.7 123.464V159.5H124.028V89.54H136.172V100.1C138.724 96.492 142.156 93.72 146.468 91.784C150.868 89.848 155.84 88.88 161.384 88.88ZM277.135 89.54L246.511 159.5H233.575L202.951 89.54H216.151L240.175 145.64L264.727 89.54H277.135ZM321.216 149.204C329.576 149.204 336.308 146.388 341.412 140.756L348.276 148.94C345.196 152.636 341.28 155.452 336.528 157.388C331.864 159.324 326.628 160.292 320.82 160.292C313.428 160.292 306.872 158.796 301.152 155.804C295.432 152.724 290.988 148.456 287.82 143C284.74 137.544 283.2 131.384 283.2 124.52C283.2 117.744 284.696 111.628 287.688 106.172C290.768 100.716 294.948 96.492 300.228 93.5C305.596 90.42 311.624 88.88 318.312 88.88C324.648 88.88 330.412 90.332 335.604 93.236C340.796 96.052 344.932 100.056 348.012 105.248C351.092 110.44 352.676 116.424 352.764 123.2L297.192 134.024C298.952 138.864 301.9 142.604 306.036 145.244C310.26 147.884 315.32 149.204 321.216 149.204ZM318.312 99.572C313.912 99.572 309.952 100.584 306.432 102.608C303 104.632 300.316 107.492 298.38 111.188C296.444 114.796 295.476 119.02 295.476 123.86V125.18L340.224 116.732C339.08 111.628 336.528 107.492 332.568 104.324C328.608 101.156 323.856 99.572 318.312 99.572ZM373.132 89.54H385.804V159.5H373.132V89.54ZM379.468 76.076C377.004 76.076 374.936 75.284 373.264 73.7C371.68 72.116 370.888 70.18 370.888 67.892C370.888 65.604 371.68 63.668 373.264 62.084C374.936 60.412 377.004 59.576 379.468 59.576C381.932 59.576 383.956 60.368 385.54 61.952C387.212 63.448 388.048 65.34 388.048 67.628C388.048 70.004 387.212 72.028 385.54 73.7C383.956 75.284 381.932 76.076 379.468 76.076ZM433.891 160.292C427.115 160.292 421.879 158.444 418.183 154.748C414.487 150.964 412.639 145.684 412.639 138.908V61.556H425.311V137.852C425.311 141.636 426.191 144.54 427.951 146.564C429.799 148.588 432.527 149.6 436.135 149.6C438.335 149.6 440.403 149.16 442.339 148.28L442.999 158.708C440.095 159.764 437.059 160.292 433.891 160.292ZM464.334 160.292C461.87 160.292 459.758 159.456 457.998 157.784C456.238 156.024 455.358 153.824 455.358 151.184C455.358 148.632 456.238 146.52 457.998 144.848C459.758 143.088 461.87 142.208 464.334 142.208C466.798 142.208 468.866 143.044 470.538 144.716C472.21 146.388 473.046 148.544 473.046 151.184C473.046 153.824 472.166 156.024 470.406 157.784C468.734 159.456 466.71 160.292 464.334 160.292Z" fill="#DEDEDE"/>
<path d="M512.457 160.952C507.353 160.952 502.777 160.27 498.729 158.906C494.681 157.542 491.425 156.178 488.961 154.814L492.261 145.508C494.813 147.444 497.849 148.984 501.369 150.128C504.933 151.272 508.365 151.844 511.665 151.844C515.317 151.844 518.419 151.118 520.971 149.666C523.567 148.17 524.865 145.728 524.865 142.34C524.865 140.008 523.985 138.05 522.225 136.466C520.509 134.838 518.287 133.386 515.559 132.11C512.831 130.834 509.927 129.536 506.847 128.216C503.811 126.896 500.929 125.4 498.201 123.728C495.473 122.012 493.273 119.944 491.601 117.524C489.929 115.104 489.115 112.134 489.159 108.614C489.247 102.982 491.315 98.538 495.363 95.282C499.411 91.982 504.823 90.332 511.599 90.332C515.911 90.332 519.849 90.86 523.413 91.916C527.021 92.972 530.211 94.226 532.983 95.678L530.079 104.588C527.307 103.092 524.337 101.904 521.169 101.024C518.045 100.1 515.075 99.638 512.259 99.638C508.431 99.638 505.395 100.408 503.151 101.948C500.951 103.444 499.851 105.556 499.851 108.284C499.851 110.352 500.709 112.134 502.425 113.63C504.185 115.126 506.429 116.512 509.157 117.788C511.885 119.02 514.767 120.296 517.803 121.616C520.883 122.936 523.765 124.476 526.449 126.236C529.177 127.952 531.377 130.02 533.049 132.44C534.721 134.86 535.513 137.83 535.425 141.35C535.293 147.158 533.159 151.888 529.023 155.54C524.931 159.148 519.409 160.952 512.457 160.952ZM613.865 161.81C610.433 161.194 606.913 159.676 603.305 157.256C599.741 154.836 596.639 151.426 593.999 147.026L583.373 129.272L563.243 157.718C562.055 159.17 560.713 160.05 559.217 160.358C557.721 160.666 556.423 160.402 555.323 159.566C554.223 158.774 553.673 157.432 553.673 155.54V60.764L564.497 58.784V140.228L598.553 91.784L608.387 95.084L589.445 121.22L602.447 141.68C604.779 145.376 607.397 148.302 610.301 150.458C613.205 152.614 616.351 153.67 619.739 153.626L613.865 161.81ZM648.015 159.83C644.891 159.83 641.987 159.236 639.303 158.048C636.619 156.86 634.463 154.902 632.835 152.174C631.207 149.446 630.393 145.772 630.393 141.152V91.784H641.283V140.822C641.283 145.442 642.097 148.412 643.725 149.732C645.353 151.052 647.289 151.712 649.533 151.712C650.545 151.712 651.865 151.58 653.493 151.316C655.121 151.008 656.507 150.634 657.651 150.194L658.971 157.52C657.343 158.18 655.495 158.73 653.427 159.17C651.359 159.61 649.555 159.83 648.015 159.83ZM630.195 77.792V65.978H641.811V77.792H630.195ZM738.013 160.754C733.217 161.458 729.565 161.194 727.057 159.962C724.549 158.73 722.833 156.53 721.909 153.362C720.985 150.15 720.523 145.948 720.523 140.756V122.408C720.523 114.4 719.423 108.614 717.223 105.05C715.023 101.442 711.371 99.638 706.267 99.638C703.099 99.638 699.865 100.43 696.565 102.014C693.309 103.554 690.515 105.996 688.183 109.34C685.895 112.64 684.575 116.93 684.223 122.21V159.5H673.399V113.366C673.399 109.538 672.739 106.194 671.419 103.334C670.099 100.474 668.669 97.768 667.129 95.216L678.019 91.784C679.207 93.588 680.285 95.436 681.253 97.328C682.265 99.176 682.925 101.178 683.233 103.334C685.213 99.418 688.579 96.272 693.331 93.896C698.127 91.52 703.209 90.332 708.577 90.332C716.233 90.332 721.953 92.862 725.737 97.922C729.521 102.938 731.413 111.034 731.413 122.21V138.38C731.413 141.724 731.479 144.474 731.611 146.63C731.743 148.786 732.337 150.304 733.393 151.184C734.449 152.02 736.341 152.174 739.069 151.646L738.013 160.754Z" fill="#C88D8D"/>
</svg>
