<svg width="764" height="398" viewBox="0 0 764 398" fill="none" xmlns="http://www.w3.org/2000/svg">
<path d="M78.3196 189.113C68.2468 189.113 59.4671 187.145 51.9805 183.207C44.494 179.134 38.7089 173.568 34.6254 166.507C30.5418 159.447 28.5 151.505 28.5 142.68V82.8045H51.9805V142.476C51.9805 147.771 53.1375 152.455 55.4516 156.528C57.9017 160.466 61.1005 163.588 65.048 165.897C69.1315 168.069 73.5554 169.155 78.3196 169.155C83.0837 169.155 87.4395 168.069 91.387 165.897C95.4706 163.588 98.6693 160.466 100.983 156.528C103.434 152.455 104.659 147.771 104.659 142.476V82.8045H128.139V142.68C128.139 151.505 126.097 159.447 122.014 166.507C117.93 173.568 112.145 179.134 104.659 183.207C97.172 187.145 88.3924 189.113 78.3196 189.113Z" fill="#E6E8EB"/>
<path d="M186.938 186.669V126.794C186.938 117.833 188.98 109.891 193.063 102.967C197.147 95.9064 202.932 90.4077 210.418 86.4703C217.905 82.3972 226.685 80.3606 236.757 80.3606C246.83 80.3606 255.542 82.3972 262.892 86.4703C270.379 90.4077 276.164 95.9064 280.247 102.967C284.331 109.891 286.373 117.833 286.373 126.794V186.669H263.096V126.998C263.096 121.703 261.871 117.087 259.421 113.149C256.971 109.076 253.704 105.954 249.621 103.781C245.673 101.473 241.317 100.319 236.553 100.319C231.925 100.319 227.569 101.473 223.486 103.781C219.538 105.954 216.339 109.076 213.889 113.149C211.575 117.087 210.418 121.703 210.418 126.998V186.669H186.938Z" fill="#E6E8EB"/>
<path d="M383.71 189.113C378.265 189.113 373.365 187.62 369.009 184.633C364.789 181.646 361.727 177.641 359.821 172.617L327.969 82.8045H353.492L380.647 163.453C381.056 164.403 381.532 165.082 382.077 165.489C382.621 165.897 383.234 166.1 383.914 166.1C384.595 166.1 385.207 165.897 385.752 165.489C386.432 165.082 386.909 164.403 387.181 163.453L414.541 82.8045H439.655L407.599 172.617C405.829 177.641 402.767 181.646 398.411 184.633C394.055 187.62 389.155 189.113 383.71 189.113Z" fill="#E6E8EB"/>
<path d="M536.153 186.669C524.447 186.669 514.17 184.497 505.322 180.152C496.611 175.672 489.805 169.562 484.904 161.823C480.004 153.949 477.554 144.92 477.554 134.737C477.554 124.011 479.732 114.575 484.088 106.429C488.443 98.2824 494.433 91.9012 502.055 87.285C509.678 82.6687 518.458 80.3606 528.394 80.3606C539.556 80.3606 548.744 82.7366 555.959 87.4886C563.173 92.2406 568.481 98.6219 571.884 106.632C575.424 114.643 577.193 123.604 577.193 133.515C577.193 134.873 577.125 136.434 576.989 138.199C576.853 139.964 576.649 141.322 576.376 142.272H502.464C503.28 147.703 505.254 152.251 508.385 155.917C511.516 159.447 515.463 162.163 520.227 164.064C524.991 165.829 530.3 166.711 536.153 166.711H564.126V186.669H536.153ZM502.26 126.387H553.713C553.576 123.807 553.168 121.228 552.487 118.648C551.943 116.068 550.99 113.625 549.629 111.316C548.404 109.008 546.77 107.04 544.729 105.41C542.823 103.645 540.509 102.288 537.787 101.337C535.064 100.251 531.934 99.708 528.394 99.708C524.311 99.708 520.704 100.523 517.573 102.152C514.442 103.645 511.788 105.682 509.61 108.262C507.432 110.705 505.731 113.557 504.506 116.815C503.417 119.938 502.668 123.129 502.26 126.387Z" fill="#E6E8EB"/>
<path d="M629.75 186.669V82.8045H653.23V186.669H629.75ZM641.388 68.3449C637.304 68.3449 633.765 66.8514 630.771 63.8644C627.776 60.8775 626.279 57.3474 626.279 53.2743C626.279 49.2011 627.776 45.6711 630.771 42.6841C633.765 39.6971 637.304 38.2037 641.388 38.2037C645.608 38.2037 649.147 39.6971 652.005 42.6841C655 45.6711 656.497 49.2011 656.497 53.2743C656.497 57.3474 655 60.8775 652.005 63.8644C649.147 66.8514 645.608 68.3449 641.388 68.3449Z" fill="#E6E8EB"/>
<path d="M712.019 186.669V38H735.5V186.669H712.019Z" fill="#E6E8EB"/>
<path d="M279.103 273.205H286.676V303.124H279.846C279.45 298.088 278.707 294.04 277.618 290.979C276.529 287.918 274.896 285.597 272.718 284.017C270.54 282.339 268.115 281.253 265.442 280.759C262.769 280.166 259.205 279.87 254.75 279.87C248.711 279.87 244.257 281.203 241.386 283.869C238.614 286.535 237.228 290.041 237.228 294.385C237.228 298.434 238.366 301.544 240.643 303.717C243.019 305.79 247.128 307.568 252.968 309.049L264.551 312.159C273.658 314.628 280.143 317.541 284.003 320.898C287.963 324.156 289.943 329.291 289.943 336.302C289.943 352.101 280.192 360 260.69 360C248.315 360 239.554 355.655 234.407 346.966L234.704 357.926H227.13V328.007H233.961C235.644 343.51 244.108 351.261 259.353 351.261C272.817 351.261 279.549 346.275 279.549 336.302C279.549 332.747 278.41 329.883 276.133 327.711C273.856 325.539 269.847 323.712 264.105 322.231L252.523 319.121C243.316 316.751 236.733 313.937 232.773 310.678C228.813 307.321 226.833 301.939 226.833 294.534C226.833 287.523 229.16 281.895 233.813 277.649C238.564 273.304 245.544 271.132 254.75 271.132C266.531 271.132 274.698 274.686 279.252 281.796L279.103 273.205Z" fill="#C4A88A"/>
<path d="M312.27 254.247V246.841H331.575V308.16H344.939L364.243 280.611H356.522V273.205H384.735V280.611H375.826L352.809 313.048L378.647 350.521H387.408V357.926H359.194V350.521H367.065L343.454 316.158H331.575V350.521H340.484V357.926H312.27V350.521H321.18V254.247H312.27Z" fill="#C4A88A"/>
<path d="M405.183 280.611V273.205H424.487V350.521H433.397V357.926H405.183V350.521H414.093V280.611H405.183ZM419.29 258.394C417.409 258.394 415.974 257.949 414.984 257.061C413.994 256.172 413.4 255.283 413.202 254.395C413.004 253.407 412.905 252.124 412.905 250.544C412.905 248.865 413.004 247.581 413.202 246.693C413.4 245.705 413.994 244.767 414.984 243.879C415.974 242.99 417.409 242.546 419.29 242.546C421.27 242.546 422.755 242.99 423.745 243.879C424.834 244.767 425.477 245.705 425.675 246.693C425.873 247.581 425.972 248.865 425.972 250.544C425.972 253.012 425.576 254.938 424.784 256.32C423.992 257.703 422.161 258.394 419.29 258.394Z" fill="#C4A88A"/>
<path d="M455.718 280.611V273.205H471.606L474.131 282.684C484.129 274.983 494.623 271.132 505.611 271.132C514.323 271.132 520.56 273.304 524.321 277.649C528.182 281.895 530.113 288.56 530.113 297.644V350.521H539.022V357.926H510.809V350.521H519.718V297.496C519.718 291.275 518.481 286.782 516.006 284.017C513.63 281.253 509.621 279.87 503.978 279.87C493.88 279.87 484.228 283.524 475.022 290.831V350.521H483.931V357.926H455.718V350.521H464.627V280.611H455.718Z" fill="#C4A88A"/>
</svg>
